<?xml version="1.0" standalone="no"?>
<!DOCTYPE svg PUBLIC "-//W3C//DTD SVG 20010904//EN"
 "http://www.w3.org/TR/2001/REC-SVG-20010904/DTD/svg10.dtd">
<svg version="1.0" xmlns="http://www.w3.org/2000/svg"
 width="1024.000000pt" height="1024.000000pt" viewBox="0 0 1024.000000 1024.000000"
 preserveAspectRatio="xMidYMid meet">

<g transform="translate(0.000000,1024.000000) scale(0.100000,-0.100000)"
fill="currentColor" stroke="none">
<path d="M4570 9081 c-70 -22 -352 -193 -498 -303 -310 -233 -489 -435 -613
-693 -90 -188 -126 -375 -115 -595 21 -429 208 -798 632 -1249 l79 -83 180 97
c99 53 199 108 223 122 l43 24 -115 119 c-136 142 -326 376 -397 490 -112 182
-159 335 -159 526 0 191 45 331 162 502 114 166 413 424 673 580 121 74 168
122 186 194 39 166 -119 318 -281 269z"/>
<path d="M6023 8810 c-62 -28 -106 -112 -89 -168 4 -11 45 -71 91 -134 136
-183 211 -347 250 -543 23 -119 17 -317 -14 -424 -45 -154 -138 -308 -265
-440 -200 -206 -477 -371 -1190 -707 -242 -114 -646 -325 -801 -417 -142 -85
-361 -235 -474 -324 -131 -104 -389 -365 -484 -490 -274 -361 -390 -693 -374
-1077 11 -295 113 -577 284 -790 142 -176 253 -269 472 -393 l145 -82 90 87
c95 92 164 146 256 201 54 32 53 31 -56 -81 -124 -127 -257 -274 -329 -363
-169 -209 -314 -509 -369 -760 -17 -77 -36 -289 -36 -396 l0 -69 -240 0 c-185
0 -248 -3 -275 -14 -58 -25 -72 -80 -30 -121 l24 -25 2476 0 c1596 0 2483 3
2495 10 10 5 23 24 29 42 10 28 9 36 -7 58 -36 48 -48 50 -352 50 l-286 0 -12
168 c-29 402 -162 740 -416 1056 -83 104 -223 253 -285 305 l-56 46 -358 -3
-358 -2 68 -52 c259 -197 536 -484 690 -713 52 -77 133 -239 168 -335 37 -104
73 -285 76 -383 l2 -82 -76 -3 -77 -3 0 110 c0 60 -3 116 -6 125 -6 14 -128
16 -1285 16 l-1279 0 0 -119 0 -119 -76 -4 c-42 -2 -78 1 -81 6 -8 12 7 180
23 269 26 138 117 360 202 491 89 138 277 340 427 457 318 251 721 420 1115
469 47 5 277 10 520 10 490 0 510 2 655 78 106 56 229 182 283 292 64 129 72
175 72 396 l0 192 178 4 c172 3 178 4 223 30 92 54 151 149 169 273 5 41 10
323 10 675 l0 605 46 25 c179 94 269 300 218 495 -54 209 -262 345 -481 314
-238 -33 -400 -263 -353 -501 6 -34 23 -85 37 -112 31 -61 109 -145 174 -187
l49 -31 0 -244 0 -244 -135 0 -135 0 0 183 c0 212 -11 273 -70 392 -95 192
-267 339 -475 405 -61 20 -98 24 -281 28 l-211 4 -79 -45 c-43 -25 -142 -76
-218 -114 l-139 -68 409 -5 c393 -5 411 -6 469 -28 166 -62 294 -198 351 -372
17 -51 19 -114 22 -828 2 -457 -1 -825 -7 -898 -9 -111 -14 -133 -45 -197 -57
-118 -171 -220 -301 -270 l-60 -22 -1214 -3 c-1064 -2 -1221 0 -1274 13 -209
53 -371 217 -406 409 -7 35 -11 194 -11 384 0 275 -2 323 -14 313 -19 -16
-110 -203 -135 -276 -61 -186 -81 -426 -47 -570 25 -107 117 -282 190 -362 65
-71 55 -71 -36 1 -125 100 -228 260 -268 420 -25 100 -27 292 -4 403 47 231
210 545 396 768 92 111 289 301 400 388 283 220 720 467 1293 732 360 166 683
331 855 438 222 137 427 333 557 529 230 349 291 717 177 1079 -39 126 -125
292 -204 399 -81 108 -247 280 -333 346 -67 50 -98 55 -164 24z m1248 -2449
c33 -33 36 -58 14 -101 -18 -35 -43 -50 -85 -50 -35 0 -80 40 -80 72 0 49 55
107 103 108 10 0 32 -13 48 -29z m-143 -190 c8 -4 12 -19 10 -32 -4 -33 -53
-40 -63 -9 -11 36 22 61 53 41z m39 -1071 c68 -41 68 -42 68 -365 0 -259 -2
-293 -18 -323 -32 -59 -67 -72 -193 -72 l-111 0 -6 212 c-4 116 -7 291 -7 390
l0 178 118 0 c98 0 122 -3 149 -20z"/>
<path d="M4142 7992 c-48 -62 -133 -216 -147 -270 l-7 -23 454 5 c249 3 734 5
1077 5 l624 1 -6 123 c-4 67 -13 145 -20 172 l-14 50 -954 2 -954 2 -53 -67z"/>
<path d="M4005 7338 c13 -50 97 -208 140 -266 l45 -62 732 -2 733 -3 55 45
c70 56 243 224 282 273 l30 37 -1012 0 -1011 0 6 -22z"/>
<path d="M4440 6676 c0 -5 49 -52 155 -149 28 -26 53 -47 57 -47 11 0 388 189
388 195 0 3 -135 5 -300 5 -165 0 -300 -2 -300 -4z"/>
<path d="M4830 5674 c-90 -47 -174 -92 -185 -100 -17 -12 80 -14 690 -14 667
0 712 -2 750 -19 49 -22 91 -69 105 -119 8 -25 10 -255 8 -737 -3 -630 -5
-703 -20 -730 -22 -40 -66 -81 -101 -94 -20 -8 -348 -11 -1053 -12 -984 0
-1026 1 -1067 19 -51 23 -92 69 -107 120 -6 23 -10 233 -10 565 0 338 -4 527
-10 525 -5 -1 -53 -45 -105 -97 l-96 -93 3 -477 3 -476 32 -67 c37 -79 105
-151 171 -181 l47 -22 1140 0 1140 0 43 23 c106 57 174 151 192 268 7 46 10
314 8 794 l-3 725 -31 65 c-49 101 -125 168 -228 203 -44 15 -113 17 -600 17
l-551 0 -165 -86z"/>
<path d="M4322 4718 l3 -573 233 -3 233 -2 -3 572 -3 573 -233 3 -232 2 2
-572z"/>
<path d="M5270 5107 c0 -101 -3 -360 -7 -575 l-6 -392 231 0 232 0 0 575 0
575 -225 0 -225 0 0 -183z"/>
<path d="M3460 3760 c0 -26 63 -123 110 -171 63 -63 174 -123 259 -139 34 -6
479 -10 1205 -10 1250 1 1209 -1 1323 57 91 45 190 160 217 249 6 20 3 21 -76
22 l-83 2 -36 -48 c-20 -27 -58 -63 -85 -81 -98 -64 -35 -62 -1285 -59 l-1134
3 -65 31 c-36 17 -85 47 -110 67 -24 20 -48 33 -54 30 -5 -3 -6 -1 -2 5 4 6 2
21 -4 32 -10 19 -19 21 -96 19 -46 -1 -84 -5 -84 -9z"/>
<path d="M5180 2959 c-145 -33 -353 -107 -487 -175 -70 -36 -132 -69 -137 -75
-6 -5 188 -9 527 -9 295 0 537 3 537 8 -1 4 -46 41 -102 82 -56 41 -134 101
-174 133 -40 31 -74 57 -75 56 -2 0 -42 -9 -89 -20z"/>
<path d="M4084 2298 c-64 -69 -184 -240 -184 -263 0 -7 367 -10 1145 -10 771
0 1145 3 1145 10 0 14 -130 186 -202 268 l-60 67 -888 0 -888 0 -68 -72z"/>
</g>
</svg>
